TITLE ""
FILE "1Q_t_1339-1348.mp3" MP3
  TRACK 01 AUDIO
    TITLE "1Q_t_1339-1348_01"
    INDEX 01 00:00:00
  TRACK 02 AUDIO
    TITLE "1Q_t_1339-1348_02"
    INDEX 01 00:01:14
  TRACK 03 AUDIO
    TITLE "1Q_t_1339-1348_03"
    INDEX 01 00:01:23
  TRACK 04 AUDIO
    TITLE "1Q_t_1339-1348_04"
    INDEX 01 00:02:33
  TRACK 05 AUDIO
    TITLE "1Q_t_1339-1348_05"
    INDEX 01 00:02:39
  TRACK 06 AUDIO
    TITLE "1Q_t_1339-1348_06"
    INDEX 01 00:07:59
  TRACK 07 AUDIO
    TITLE "1Q_t_1339-1348_07"
    INDEX 01 00:08:29
  TRACK 08 AUDIO
    TITLE "1Q_t_1339-1348_08"
    INDEX 01 00:09:25
  TRACK 09 AUDIO
    TITLE "1Q_t_1339-1348_09"
    INDEX 01 00:09:31
  TRACK 10 AUDIO
    TITLE "1Q_t_1339-1348_10"
    INDEX 01 00:11:45
  TRACK 11 AUDIO
    TITLE "1Q_t_1339-1348_11"
    INDEX 01 00:11:51
  TRACK 12 AUDIO
    TITLE "1Q_t_1339-1348_12"
    INDEX 01 00:17:05
  TRACK 13 AUDIO
    TITLE "1Q_t_1339-1348_13"
    INDEX 01 00:17:50
  TRACK 14 AUDIO
    TITLE "1Q_t_1339-1348_14"
    INDEX 01 00:18:67
  TRACK 15 AUDIO
    TITLE "1Q_t_1339-1348_15"
    INDEX 01 00:18:73
  TRACK 16 AUDIO
    TITLE "1Q_t_1339-1348_16"
    INDEX 01 00:20:03
  TRACK 17 AUDIO
    TITLE "1Q_t_1339-1348_17"
    INDEX 01 00:20:07
  TRACK 18 AUDIO
    TITLE "1Q_t_1339-1348_18"
    INDEX 01 00:24:73
  TRACK 19 AUDIO
    TITLE "1Q_t_1339-1348_19"
    INDEX 01 00:25:46
  TRACK 20 AUDIO
    TITLE "1Q_t_1339-1348_20"
    INDEX 01 00:26:43
  TRACK 21 AUDIO
    TITLE "1Q_t_1339-1348_21"
    INDEX 01 00:26:51
  TRACK 22 AUDIO
    TITLE "1Q_t_1339-1348_22"
    INDEX 01 00:28:54
  TRACK 23 AUDIO
    TITLE "1Q_t_1339-1348_23"
    INDEX 01 00:28:60
  TRACK 24 AUDIO
    TITLE "1Q_t_1339-1348_24"
    INDEX 01 00:34:25
  TRACK 25 AUDIO
    TITLE "1Q_t_1339-1348_25"
    INDEX 01 00:34:70
  TRACK 26 AUDIO
    TITLE "1Q_t_1339-1348_26"
    INDEX 01 00:36:14
  TRACK 27 AUDIO
    TITLE "1Q_t_1339-1348_27"
    INDEX 01 00:36:20
  TRACK 28 AUDIO
    TITLE "1Q_t_1339-1348_28"
    INDEX 01 00:39:26
  TRACK 29 AUDIO
    TITLE "1Q_t_1339-1348_29"
    INDEX 01 00:39:34
  TRACK 30 AUDIO
    TITLE "1Q_t_1339-1348_30"
    INDEX 01 00:45:44
  TRACK 31 AUDIO
    TITLE "1Q_t_1339-1348_31"
    INDEX 01 00:46:14
  TRACK 32 AUDIO
    TITLE "1Q_t_1339-1348_32"
    INDEX 01 00:47:37
  TRACK 33 AUDIO
    TITLE "1Q_t_1339-1348_33"
    INDEX 01 00:47:43
  TRACK 34 AUDIO
    TITLE "1Q_t_1339-1348_34"
    INDEX 01 00:49:40
  TRACK 35 AUDIO
    TITLE "1Q_t_1339-1348_35"
    INDEX 01 00:49:48
  TRACK 36 AUDIO
    TITLE "1Q_t_1339-1348_36"
    INDEX 01 00:56:11
  TRACK 37 AUDIO
    TITLE "1Q_t_1339-1348_37"
    INDEX 01 00:56:56
  TRACK 38 AUDIO
    TITLE "1Q_t_1339-1348_38"
    INDEX 01 00:58:06
  TRACK 39 AUDIO
    TITLE "1Q_t_1339-1348_39"
    INDEX 01 00:58:14
  TRACK 40 AUDIO
    TITLE "1Q_t_1339-1348_40"
    INDEX 01 01:00:20
  TRACK 41 AUDIO
    TITLE "1Q_t_1339-1348_41"
    INDEX 01 01:00:26
  TRACK 42 AUDIO
    TITLE "1Q_t_1339-1348_42"
    INDEX 01 01:06:05
  TRACK 43 AUDIO
    TITLE "1Q_t_1339-1348_43"
    INDEX 01 01:06:50
  TRACK 44 AUDIO
    TITLE "1Q_t_1339-1348_44"
    INDEX 01 01:07:69
  TRACK 45 AUDIO
    TITLE "1Q_t_1339-1348_45"
    INDEX 01 01:08:00
  TRACK 46 AUDIO
    TITLE "1Q_t_1339-1348_46"
    INDEX 01 01:09:74
  TRACK 47 AUDIO
    TITLE "1Q_t_1339-1348_47"
    INDEX 01 01:10:05
  TRACK 48 AUDIO
    TITLE "1Q_t_1339-1348_48"
    INDEX 01 01:16:15
  TRACK 49 AUDIO
    TITLE "1Q_t_1339-1348_49"
    INDEX 01 01:16:60
  TRACK 50 AUDIO
    TITLE "1Q_t_1339-1348_50"
    INDEX 01 01:18:06
  TRACK 51 AUDIO
    TITLE "1Q_t_1339-1348_51"
    INDEX 01 01:18:12
  TRACK 52 AUDIO
    TITLE "1Q_t_1339-1348_52"
    INDEX 01 01:19:02
  TRACK 53 AUDIO
    TITLE "1Q_t_1339-1348_53"
    INDEX 01 01:19:08
  TRACK 54 AUDIO
    TITLE "1Q_t_1339-1348_54"
    INDEX 01 01:25:07
  TRACK 55 AUDIO
    TITLE "1Q_t_1339-1348_55"
    INDEX 01 01:25:52
  TRACK 56 AUDIO
    TITLE "1Q_t_1339-1348_56"
    INDEX 01 01:26:69
  TRACK 57 AUDIO
    TITLE "1Q_t_1339-1348_57"
    INDEX 01 01:27:00
  TRACK 58 AUDIO
    TITLE "1Q_t_1339-1348_58"
    INDEX 01 01:28:09
  TRACK 59 AUDIO
    TITLE "1Q_t_1339-1348_59"
    INDEX 01 01:28:15
  TRACK 60 AUDIO
    TITLE "1Q_t_1339-1348_60"
    INDEX 01 01:35:19
